<?xml version="1.0" encoding="UTF-8" standalone="no"?>
<svg
   class="img-fluid"
   id="outputsvg"
   width="2389.384"
   height="2830.3611"
   viewBox="0 0 23893.838 28303.607"
   version="1.1"
   sodipodi:docname="atlas.svg"
   inkscape:version="1.2.2 (732a01da63, 2022-12-09)"
   inkscape:export-filename="atlas.png"
   inkscape:export-xdpi="90"
   inkscape:export-ydpi="90"
   xml:space="preserve"
   xmlns:inkscape="http://www.inkscape.org/namespaces/inkscape"
   xmlns:sodipodi="http://sodipodi.sourceforge.net/DTD/sodipodi-0.dtd"
   xmlns:xlink="http://www.w3.org/1999/xlink"
   xmlns="http://www.w3.org/2000/svg"
   xmlns:svg="http://www.w3.org/2000/svg"><defs
     id="defs22"><linearGradient
       inkscape:collect="always"
       id="linearGradient1329"><stop
         style="stop-color:#7c3efc;stop-opacity:1;"
         offset="0"
         id="stop1325" /><stop
         style="stop-color:#fc3e5e;stop-opacity:1;"
         offset="1"
         id="stop1327" /></linearGradient><rect
       x="-54.459206"
       y="529.25146"
       width="602.11938"
       height="140.36668"
       id="rect374" /><linearGradient
       inkscape:collect="always"
       xlink:href="#linearGradient1329"
       id="linearGradient1331"
       x1="2504.874"
       y1="144.76109"
       x2="2504.874"
       y2="4962.7583"
       gradientUnits="userSpaceOnUse" /><linearGradient
       inkscape:collect="always"
       xlink:href="#linearGradient1329"
       id="linearGradient1474"
       gradientUnits="userSpaceOnUse"
       x1="2504.874"
       y1="144.76109"
       x2="2504.874"
       y2="4962.7583" /><linearGradient
       inkscape:collect="always"
       xlink:href="#linearGradient1329"
       id="linearGradient1476"
       gradientUnits="userSpaceOnUse"
       x1="2504.874"
       y1="144.76109"
       x2="2504.874"
       y2="4962.7583" /><linearGradient
       inkscape:collect="always"
       xlink:href="#linearGradient1329"
       id="linearGradient1478"
       gradientUnits="userSpaceOnUse"
       x1="2504.874"
       y1="144.76109"
       x2="2504.874"
       y2="4962.7583" /><linearGradient
       inkscape:collect="always"
       xlink:href="#linearGradient1329"
       id="linearGradient1480"
       gradientUnits="userSpaceOnUse"
       x1="2504.874"
       y1="144.76109"
       x2="2504.874"
       y2="4962.7583" /><linearGradient
       inkscape:collect="always"
       xlink:href="#linearGradient1329"
       id="linearGradient1482"
       gradientUnits="userSpaceOnUse"
       x1="2504.874"
       y1="144.76109"
       x2="2504.874"
       y2="4962.7583" /><linearGradient
       inkscape:collect="always"
       xlink:href="#linearGradient1329"
       id="linearGradient1484"
       gradientUnits="userSpaceOnUse"
       x1="2504.874"
       y1="144.76109"
       x2="2504.874"
       y2="4962.7583" /><linearGradient
       inkscape:collect="always"
       xlink:href="#linearGradient1329"
       id="linearGradient1486"
       gradientUnits="userSpaceOnUse"
       x1="2504.874"
       y1="144.76109"
       x2="2504.874"
       y2="4962.7583" /><linearGradient
       inkscape:collect="always"
       xlink:href="#linearGradient1329"
       id="linearGradient1488"
       gradientUnits="userSpaceOnUse"
       x1="2504.874"
       y1="144.76109"
       x2="2504.874"
       y2="4962.7583" /><linearGradient
       inkscape:collect="always"
       xlink:href="#linearGradient1329"
       id="linearGradient1490"
       gradientUnits="userSpaceOnUse"
       x1="2504.874"
       y1="144.76109"
       x2="2504.874"
       y2="4962.7583" /><linearGradient
       inkscape:collect="always"
       xlink:href="#linearGradient1329"
       id="linearGradient1492"
       gradientUnits="userSpaceOnUse"
       x1="2504.874"
       y1="144.76109"
       x2="2504.874"
       y2="4962.7583" /><linearGradient
       inkscape:collect="always"
       xlink:href="#linearGradient1329"
       id="linearGradient1494"
       gradientUnits="userSpaceOnUse"
       x1="2504.874"
       y1="144.76109"
       x2="2504.874"
       y2="4962.7583" /></defs><sodipodi:namedview
     id="namedview20"
     pagecolor="#ffffff"
     bordercolor="#999999"
     borderopacity="1"
     inkscape:showpageshadow="0"
     inkscape:pageopacity="0"
     inkscape:pagecheckerboard="0"
     inkscape:deskcolor="#d1d1d1"
     showgrid="false"
     inkscape:zoom="0.23046875"
     inkscape:cx="-2397.2881"
     inkscape:cy="2293.1525"
     inkscape:window-width="1928"
     inkscape:window-height="1413"
     inkscape:window-x="1379"
     inkscape:window-y="376"
     inkscape:window-maximized="0"
     inkscape:current-layer="outputsvg" /><text
     xml:space="preserve"
     transform="matrix(203.0638,0,0,203.0638,12038.617,-87343.974)"
     id="text372"
     style="font-style:normal;font-variant:normal;font-weight:normal;font-stretch:normal;font-size:40px;line-height:1.25;font-family:Aaargh;-inkscape-font-specification:Aaargh;white-space:pre;shape-inside:url(#rect374);display:inline;fill:#0e75ef;fill-opacity:1;stroke:none"><tspan
       x="-54.458984"
       y="564.53964"
       id="tspan1570"><tspan
         style="font-family:Birdman;-inkscape-font-specification:Birdman"
         id="tspan1568">Atlas</tspan></tspan></text><g
     transform="matrix(3.9715492,0,0,-3.9715492,1781.7368,20692.109)"
     fill="#000000"
     stroke="none"
     id="g187"
     style="fill:url(#linearGradient1331);fill-opacity:1"><path
       d="m 2480,4947 c -49,-16 -133,-102 -148,-153 -7,-26 -12,-111 -12,-228 0,-181 -1,-186 -21,-186 -11,0 -66,-9 -121,-21 -216,-45 -456,-147 -644,-275 l -97,-65 -136,134 c -142,141 -169,160 -238,172 -146,24 -292,-122 -268,-268 12,-69 31,-96 172,-238 l 134,-136 -65,-97 C 908,3398 806,3158 761,2942 c -12,-55 -21,-110 -21,-121 0,-20 -5,-21 -186,-21 -224,0 -251,-6 -319,-75 -102,-101 -102,-229 0,-330 68,-69 95,-75 319,-75 181,0 186,-1 186,-21 0,-11 9,-66 21,-121 45,-216 147,-456 275,-644 l 65,-97 -134,-136 C 826,1159 807,1132 795,1063 771,917 917,771 1063,795 c 69,12 96,31 238,172 l 136,134 97,-65 c 213,-145 509,-262 734,-292 l 52,-7 V 552 c 0,-222 6,-249 75,-317 73,-74 151,-92 248,-59 57,19 128,93 145,152 7,24 12,111 12,226 v 186 h 23 c 45,0 212,41 327,79 144,48 308,130 436,217 l 97,65 136,-134 c 142,-141 169,-160 238,-172 146,-24 292,122 268,268 -12,69 -31,96 -172,238 l -134,136 65,97 c 87,128 169,292 217,436 38,115 79,282 79,328 v 22 h 188 c 227,0 260,8 325,80 90,100 90,220 0,320 -65,72 -98,80 -325,80 h -188 v 23 c 0,45 -41,212 -79,327 -48,144 -130,308 -217,436 l -65,97 134,136 c 141,142 160,169 172,238 24,146 -122,292 -268,268 -69,-12 -96,-31 -238,-172 l -136,-134 -97,65 c -188,128 -428,230 -644,275 -55,12 -110,21 -121,21 -20,0 -21,5 -21,186 0,115 -5,202 -12,226 -17,59 -88,133 -145,152 -53,18 -112,19 -163,3 z m 135,-172 c 25,-24 25,-27 25,-200 v -175 h -80 -80 v 175 c 0,173 0,176 25,200 15,16 36,25 55,25 19,0 40,-9 55,-25 z m 120,-545 c 207,-23 389,-76 567,-165 496,-247 827,-698 920,-1255 7,-41 12,-154 12,-250 0,-242 -33,-421 -116,-624 -228,-558 -705,-937 -1308,-1038 -97,-16 -403,-16 -500,0 -556,93 -1009,426 -1256,921 -231,465 -231,1018 1,1483 315,633 989,1005 1680,928 z m -1672,-71 c 26,-13 247,-230 247,-242 0,-10 -97,-107 -107,-107 -12,0 -229,221 -242,247 -17,34 -13,52 18,84 32,31 50,35 84,18 z m 3078,-18 c 31,-32 35,-50 18,-84 -13,-26 -230,-247 -242,-247 -4,0 -30,22 -57,50 -28,27 -50,53 -50,57 0,11 220,228 245,241 33,18 55,14 86,-17 z M 720,2560 v -80 H 545 c -173,0 -176,0 -200,25 -16,15 -25,36 -25,55 0,19 9,40 25,55 24,25 27,25 200,25 h 175 z m 4055,55 c 16,-15 25,-36 25,-55 0,-19 -9,-40 -25,-55 -24,-25 -27,-25 -200,-25 h -175 v 80 80 h 175 c 173,0 176,0 200,-25 z M 1261,1261 c 27,-26 49,-53 49,-58 0,-19 -236,-242 -263,-248 -51,-13 -105,42 -92,93 6,26 230,262 248,262 4,0 30,-22 58,-49 z m 2781,-69 c 65,-65 119,-129 123,-144 13,-51 -41,-106 -92,-93 -27,6 -263,229 -263,247 0,12 93,107 106,107 5,1 62,-52 126,-117 z M 2640,545 c 0,-173 0,-176 -25,-200 -32,-33 -78,-33 -110,0 -25,24 -25,27 -25,200 v 175 h 80 80 z"
       id="path165"
       style="fill:url(#linearGradient1474);fill-opacity:1" /><path
       d="m 2505,4135 c -50,-49 -15,-135 55,-135 19,0 40,9 55,25 16,15 25,36 25,55 0,19 -9,40 -25,55 -15,16 -36,25 -55,25 -19,0 -40,-9 -55,-25 z"
       id="path167"
       style="fill:url(#linearGradient1476);fill-opacity:1" /><path
       d="m 2420,3834 c -208,-27 -407,-101 -580,-217 -96,-64 -273,-241 -337,-337 -95,-142 -163,-302 -199,-470 -26,-119 -26,-381 0,-500 55,-257 169,-466 355,-651 185,-186 394,-300 651,-355 119,-26 381,-26 500,0 257,55 466,169 651,355 186,185 300,394 355,651 26,119 26,381 0,500 -55,257 -169,466 -355,651 -182,182 -382,293 -631,350 -83,19 -331,33 -410,23 z m 60,-399 v -245 h -27 c -42,-1 -157,-44 -226,-85 l -61,-36 -169,169 -169,169 61,47 c 127,98 317,181 471,206 41,6 82,13 90,15 8,1 18,3 23,4 4,0 7,-109 7,-244 z m 285,224 c 153,-26 351,-113 470,-206 l 58,-45 -171,-171 -170,-170 -32,23 c -50,35 -179,89 -232,96 l -48,7 v 243 244 l 28,-5 c 15,-2 59,-9 97,-16 z m -750,-766 c -41,-69 -84,-184 -85,-225 v -28 h -245 -244 l 4,28 c 2,15 9,57 15,94 26,163 133,395 233,506 l 21,23 169,-169 168,-168 z m 1468,299 c 109,-164 155,-289 192,-524 l 5,-28 h -245 -245 v 28 c -1,42 -45,159 -86,225 l -37,59 169,169 c 192,192 170,186 247,71 z m -808,-167 c 172,-45 305,-179 350,-352 65,-249 -94,-511 -350,-578 -250,-65 -513,94 -580,350 -89,342 238,669 580,580 z m -745,-572 c 1,-42 44,-157 85,-226 l 36,-61 -167,-167 c -192,-192 -170,-186 -247,-71 -109,164 -155,289 -192,525 l -4,27 h 244 245 z m 1745,0 c -37,-236 -83,-361 -192,-525 -77,-115 -55,-121 -247,71 l -169,169 37,59 c 41,66 85,183 86,226 v 27 h 245 245 z M 2229,2015 c 65,-40 182,-84 224,-85 h 27 v -245 -244 l -27,4 c -191,30 -289,60 -418,129 -47,24 -112,66 -146,92 l -61,47 168,168 c 93,93 170,169 172,169 2,0 30,-16 61,-35 z m 894,-133 168,-168 -23,-21 c -39,-35 -139,-99 -215,-137 -115,-57 -203,-82 -385,-111 l -28,-4 v 244 245 h 25 c 41,0 151,41 217,80 35,21 65,39 68,39 3,1 81,-75 173,-167 z"
       id="path169"
       style="fill:url(#linearGradient1478);fill-opacity:1" /><path
       d="m 2485,2871 c -92,-24 -173,-90 -215,-176 -19,-41 -24,-66 -24,-135 -1,-78 2,-90 33,-148 38,-70 70,-100 145,-140 43,-22 64,-26 136,-26 72,0 93,4 136,26 75,40 107,70 145,140 31,58 34,70 33,148 0,72 -4,93 -26,136 -39,75 -70,107 -137,143 -65,34 -164,49 -226,32 z m 138,-165 c 103,-43 128,-177 48,-257 -65,-65 -157,-65 -222,0 -124,123 13,325 174,257 z"
       id="path171"
       style="fill:url(#linearGradient1480);fill-opacity:1" /><path
       d="m 1430,3690 c -45,-45 -13,-130 49,-130 44,0 62,10 76,43 15,36 3,82 -25,97 -31,16 -79,11 -100,-10 z"
       id="path173"
       style="fill:url(#linearGradient1482);fill-opacity:1" /><path
       d="m 3580,3690 c -12,-12 -20,-33 -20,-55 0,-22 8,-43 20,-55 12,-12 33,-20 55,-20 22,0 43,8 55,20 12,12 20,33 20,55 0,22 -8,43 -20,55 -12,12 -33,20 -55,20 -22,0 -43,-8 -55,-20 z"
       id="path175"
       style="fill:url(#linearGradient1484);fill-opacity:1" /><path
       d="m 985,2615 c -16,-15 -25,-36 -25,-55 0,-19 9,-40 25,-55 15,-16 36,-25 55,-25 19,0 40,9 55,25 50,49 15,135 -55,135 -19,0 -40,-9 -55,-25 z"
       id="path177"
       style="fill:url(#linearGradient1486);fill-opacity:1" /><path
       d="m 4025,2615 c -50,-49 -15,-135 55,-135 41,0 80,39 80,80 0,19 -9,40 -25,55 -15,16 -36,25 -55,25 -19,0 -40,-9 -55,-25 z"
       id="path179"
       style="fill:url(#linearGradient1488);fill-opacity:1" /><path
       d="m 1430,1540 c -45,-45 -13,-130 49,-130 44,0 62,10 76,43 15,36 3,82 -25,97 -31,16 -79,11 -100,-10 z"
       id="path181"
       style="fill:url(#linearGradient1490);fill-opacity:1" /><path
       d="m 3580,1540 c -12,-12 -20,-33 -20,-55 0,-22 8,-43 20,-55 12,-12 33,-20 55,-20 22,0 43,8 55,20 12,12 20,33 20,55 0,22 -8,43 -20,55 -12,12 -33,20 -55,20 -22,0 -43,-8 -55,-20 z"
       id="path183"
       style="fill:url(#linearGradient1492);fill-opacity:1" /><path
       d="m 2505,1095 c -16,-15 -25,-36 -25,-55 0,-19 9,-40 25,-55 49,-50 135,-15 135,55 0,41 -39,80 -80,80 -19,0 -40,-9 -55,-25 z"
       id="path185"
       style="fill:url(#linearGradient1494);fill-opacity:1" /></g></svg>
