<?xml version="1.0" encoding="UTF-8" standalone="no"?>
<svg
   class="img-fluid"
   id="outputsvg"
   width="2389.384"
   height="2865.9299"
   viewBox="0 0 23893.838 28659.296"
   version="1.1"
   sodipodi:docname="atlas.svg"
   inkscape:version="1.2.2 (732a01da63, 2022-12-09)"
   inkscape:export-filename="atlas.png"
   inkscape:export-xdpi="90"
   inkscape:export-ydpi="90"
   xml:space="preserve"
   xmlns:inkscape="http://www.inkscape.org/namespaces/inkscape"
   xmlns:sodipodi="http://sodipodi.sourceforge.net/DTD/sodipodi-0.dtd"
   xmlns="http://www.w3.org/2000/svg"
   xmlns:svg="http://www.w3.org/2000/svg"><defs
     id="defs22"><rect
       x="-54.459206"
       y="529.25146"
       width="602.11938"
       height="140.36668"
       id="rect374" /></defs><sodipodi:namedview
     id="namedview20"
     pagecolor="#ffffff"
     bordercolor="#999999"
     borderopacity="1"
     inkscape:showpageshadow="0"
     inkscape:pageopacity="0"
     inkscape:pagecheckerboard="0"
     inkscape:deskcolor="#d1d1d1"
     showgrid="false"
     inkscape:zoom="0.23046875"
     inkscape:cx="-2202.0339"
     inkscape:cy="2403.7966"
     inkscape:window-width="3840"
     inkscape:window-height="2126"
     inkscape:window-x="-11"
     inkscape:window-y="-11"
     inkscape:window-maximized="1"
     inkscape:current-layer="outputsvg" /><text
     xml:space="preserve"
     transform="matrix(203.0638,0,0,203.0638,12038.617,-86988.278)"
     id="text372"
     style="font-style:normal;font-variant:normal;font-weight:normal;font-stretch:normal;font-size:40px;line-height:1.25;font-family:Aaargh;-inkscape-font-specification:Aaargh;white-space:pre;shape-inside:url(#rect374);display:inline;fill:#0e75ef;fill-opacity:1;stroke:none"><tspan
       x="-54.458984"
       y="564.53964"
       id="tspan1403"><tspan
         style="font-family:Birdman;-inkscape-font-specification:Birdman"
         id="tspan1401">Atlas</tspan></tspan></text><g
     id="g686"
     transform="matrix(3.8406335,0,0,3.8406335,2114.8953,968.31467)"><g
       id="l63YhklZKUm3zfUCNLseKFq"
       fill="#000000"><g
         id="g622"><path
           id="p1Du7GBHxA"
           d="m 2520,5084 c -6,-14 -10,-115 -10,-225 v -199 h -66 c -150,0 -427,-57 -610,-126 C 1545,4427 1294,4264 1075,4045 854,3824 692,3573 586,3286 517,3102 460,2825 460,2676 v -66 H 261 c -110,0 -211,-4 -225,-10 -37,-14 -37,-66 0,-80 14,-6 115,-10 225,-10 h 199 v -66 c 0,-149 57,-426 126,-610 106,-286 269,-539 489,-759 218,-219 472,-383 759,-489 184,-69 461,-126 610,-126 h 66 V 261 c 0,-110 4,-211 10,-225 14,-37 66,-37 80,0 6,14 10,115 10,225 v 199 h 66 c 91,0 268,27 401,61 827,211 1444,900 1568,1750 8,59 15,136 15,173 v 66 h 199 c 110,0 211,4 225,10 37,14 37,66 0,80 -14,6 -115,10 -225,10 h -199 v 66 c 0,150 -57,427 -126,610 -107,289 -270,540 -489,759 -275,274 -599,460 -968,554 -133,34 -310,61 -401,61 h -66 v 199 c 0,110 -4,211 -10,225 -7,20 -16,26 -40,26 -24,0 -33,-6 -40,-26 z m -40,-723 v -179 l -77,-7 c -115,-10 -264,-42 -382,-81 C 1428,3897 1000,3348 945,2718 l -7,-78 H 759 580 l 4,23 c 3,12 7,54 11,92 28,336 186,720 420,1020 321,413 840,700 1360,753 50,5 93,10 98,11 4,0 7,-80 7,-178 z m 275,164 c 191,-16 442,-88 643,-185 645,-311 1076,-937 1135,-1647 l 4,-53 h -177 -177 l -13,112 c -46,422 -249,799 -575,1067 -239,197 -525,316 -847,352 l -108,12 v 179 178 l 23,-4 c 12,-3 54,-7 92,-11 z m -245,-559 c 0,-109 10,-136 50,-136 40,0 50,27 50,137 v 86 l 83,-6 c 246,-17 524,-120 740,-274 105,-74 266,-235 340,-340 154,-216 257,-494 274,-740 l 6,-83 h -86 c -110,0 -137,-10 -137,-50 0,-40 27,-50 137,-50 h 86 l -6,-82 c -17,-247 -120,-525 -274,-741 -74,-105 -235,-266 -340,-340 -216,-154 -494,-257 -740,-274 l -83,-6 v 86 c 0,110 -10,137 -50,137 -40,0 -50,-27 -50,-137 v -86 l -82,6 c -247,17 -525,120 -741,274 -105,74 -266,235 -340,340 -154,216 -257,494 -274,741 l -6,82 h 86 c 110,0 137,10 137,50 0,40 -27,50 -137,50 h -86 l 6,83 c 17,246 120,524 274,740 74,104 235,266 339,340 226,160 536,272 767,276 l 57,1 z M 945,2403 c 67,-776 682,-1391 1458,-1458 l 77,-7 V 758 578 l -27,6 c -16,2 -59,8 -98,11 -38,4 -122,18 -185,31 -442,95 -850,344 -1137,695 -235,287 -404,687 -438,1034 -3,33 -8,75 -11,93 l -5,32 h 180 179 z m 3591,55 c -3,-13 -7,-54 -11,-93 -34,-415 -256,-874 -576,-1194 -319,-320 -780,-542 -1194,-576 -38,-4 -80,-8 -92,-11 l -23,-4 v 179 179 l 78,7 c 635,56 1178,481 1376,1076 39,118 71,267 81,382 l 7,77 h 179 179 z" /><path
           id="p1EfcnCvfI"
           d="m 2043,3455 c -18,-8 -42,-29 -53,-47 -20,-32 -20,-48 -20,-881 0,-931 -3,-890 60,-922 24,-13 86,-15 377,-15 h 348 l 243,243 242,242 v 650 c 0,634 -1,651 -20,683 -38,62 -34,62 -617,62 -431,-1 -534,-3 -560,-15 z m 1067,-699 v -585 l -191,-3 -191,-3 -34,-37 -34,-38 v -190 -190 l -277,2 -278,3 -3,813 -2,812 h 505 505 z m -205,-826 -80,-81 -3,67 c -2,37 -1,73 2,81 4,9 27,13 83,13 h 78 z" /><path
           id="p1CCrUqDWx"
           d="m 2200,3191 c -5,-11 -10,-40 -10,-64 0,-79 -7,-77 346,-77 357,0 354,-1 354,76 0,90 23,84 -350,84 -315,0 -330,-1 -340,-19 z" /><path
           id="ppm7lGOQh"
           d="m 2212,2994 c -17,-12 -22,-25 -22,-60 0,-90 -32,-84 420,-84 452,0 420,-6 420,84 0,78 10,76 -420,76 -324,0 -379,-2 -398,-16 z" /><path
           id="pHdwiyEkI"
           d="m 2206,2784 c -10,-10 -16,-33 -16,-64 0,-84 -21,-80 419,-80 441,0 421,-4 421,82 0,81 17,78 -423,78 -337,0 -388,-2 -401,-16 z" /><path
           id="pYSxSNJCe"
           d="m 2200,2571 c -5,-11 -10,-40 -10,-65 0,-78 -10,-76 420,-76 430,0 420,-2 420,76 0,90 32,84 -420,84 -385,0 -400,-1 -410,-19 z" /><path
           id="pLvuEQZr6"
           d="m 2207,2372 c -19,-21 -23,-92 -7,-123 10,-18 25,-19 410,-19 452,0 420,-6 420,83 0,80 16,77 -422,77 -360,0 -386,-1 -401,-18 z" /></g></g><g
       id="lTV9iO5E2koeWFYjjzla3s"
       fill="#87d147"><g
         id="g626"><path
           id="pnIWXsx53"
           d="m 1951,104 c -25,-32 -26,-43 -5,-72 21,-30 77,-30 98,0 21,30 20,54 -4,78 -28,28 -64,25 -89,-6 z" /></g></g><g
       id="l69wexR5mRwBFHiYbtVjoNQ"
       fill="#fc657e"><g
         id="g634"><path
           id="pBIQ3ca0i"
           d="M 2345,4558 C 1574,4479 894,3929 651,3185 597,3019 550,2761 550,2629 c 0,-18 11,-19 209,-19 h 209 l 7,78 c 55,630 483,1179 1076,1376 118,39 267,71 382,81 l 77,7 v 209 209 l -37,-1 c -21,-1 -78,-6 -128,-11 z" /><path
           id="pJhva3eYs"
           d="m 2610,4361 v -208 l 108,-12 c 545,-61 1006,-374 1250,-850 98,-190 149,-359 172,-569 l 13,-112 h 209 210 l -7,83 c -23,282 -90,528 -210,767 -309,615 -916,1032 -1604,1100 -57,5 -112,10 -122,10 -18,0 -19,-11 -19,-209 z" /><path
           id="phQiNFT0"
           d="m 550,2485 c 0,-55 22,-225 41,-325 60,-301 214,-626 412,-869 281,-344 687,-595 1117,-691 94,-21 295,-49 358,-50 h 32 v 209 209 l -77,7 c -428,37 -829,249 -1102,580 -199,241 -328,560 -356,878 l -7,77 H 759 550 Z" /><path
           id="p2f4S144i"
           d="M 4145,2433 C 4078,1656 3466,1044 2688,975 l -78,-7 V 759 c 0,-198 1,-209 19,-209 132,0 390,47 556,101 755,247 1296,923 1375,1718 5,57 10,112 10,122 0,18 -11,19 -209,19 h -209 z" /><path
           id="p1HSZou0kF"
           d="m 4536,1327 c -7,-29 -69,-87 -94,-87 -10,0 0,-10 23,-23 22,-12 49,-39 60,-58 l 20,-36 16,31 c 8,17 32,42 53,55 32,22 35,26 19,34 -32,17 -65,51 -78,81 l -12,28 z" /></g></g><g
       id="l14fgmCOmLdLo57qkeUIC7S"
       fill="#f5c84c"><g
         id="g640"><path
           id="prb1peWxj"
           d="m 3403,5084 c -15,-23 -15,-29 -2,-52 21,-37 43,-48 76,-36 65,23 48,114 -22,114 -26,0 -39,-6 -52,-26 z" /><path
           id="pLvAfXL7q"
           d="m 2072,2528 3,-843 308,-3 307,-2 v 190 190 l 34,38 34,37 191,3 191,3 v 615 614 h -535 -535 z m 783,618 c 8,-24 6,-31 -14,-47 -22,-18 -43,-19 -304,-19 -247,0 -283,2 -299,17 -20,18 -23,36 -8,64 10,19 22,19 313,17 l 302,-3 z m 126,-185 c 20,-16 22,-23 14,-47 l -10,-29 h -375 -375 l -10,29 c -8,24 -6,31 14,47 22,18 45,19 371,19 326,0 349,-1 371,-19 z m 1,-208 c 22,-20 23,-41 1,-65 -15,-17 -40,-18 -374,-18 -312,0 -360,2 -373,16 -9,8 -16,24 -16,34 0,10 7,26 16,34 13,14 61,16 371,16 318,0 358,-2 375,-17 z m 13,-227 c 8,-24 6,-31 -14,-47 -22,-18 -44,-19 -370,-19 -297,0 -350,2 -369,16 -24,17 -28,35 -12,65 10,19 23,19 383,17 l 372,-3 z m -10,-186 c 15,-16 17,-26 9,-48 l -9,-27 h -375 -375 l -9,27 c -8,22 -6,32 9,48 18,19 29,20 375,20 346,0 357,-1 375,-20 z" /><path
           id="pLSa8a4T9"
           d="m 1386,495 c -9,-37 -75,-105 -121,-126 l -39,-18 29,-11 c 51,-19 92,-57 118,-110 25,-50 25,-50 32,-22 9,42 60,99 113,127 26,13 40,24 31,25 -37,1 -106,58 -131,109 -24,47 -26,49 -32,26 z" /></g></g><g
       id="l4vSnXqSPmmuWm1ZZzAbgfN"
       fill="#70d6f9"><g
         id="g644"><path
           id="p100N0tSBl"
           d="m 3992,4794 c -13,-9 -24,-30 -28,-55 -6,-34 -10,-39 -33,-39 -40,0 -71,-26 -71,-60 0,-38 24,-60 65,-60 31,0 33,-2 39,-45 14,-93 116,-86 116,8 0,36 1,37 38,37 95,0 98,104 4,117 -41,5 -42,7 -42,43 0,55 -46,83 -88,54 z" /></g></g><g
       id="l7D4NqmdoRMQVDzqgCx9y4I"
       fill="#fcdd86"><g
         id="g648"><path
           id="pVzDLKwbk"
           d="m 2794,2027 c -2,-7 -3,-70 -2,-140 l 3,-127 140,140 140,140 h -138 c -104,0 -139,-3 -143,-13 z" /></g></g></g></svg>
